# xmcd CD database file
#
# Track frame offsets:
#	150
#	16178
#	31052
#	44077
#	57390
#	67720
#	80400
#	90068
#	103816
#	119873
#	134567
#	148869
#
# Disc length: 2137 seconds
#
# Revision: 0
# Processed by: cddbd v1.5.1PL0 Copyright (c) Steve Scherf et al.
# Submitted via: CDex 1.50beta10
#
DISCID=a308570c
DTITLE=Dinah Washington - Drinking Again
DYEAR=1900
DGENRE=Jazz
TTITLE0=Drinking Again
TTITLE1=Just Friends
TTITLE2=I'm Gonna Laugh You Out Of My Life
TTITLE3=I'll Be Around
TTITLE4=Lament (Love, I Found You Gone)
TTITLE5=I Don't Know You Anymore
TTITLE6=Baby Won't You Please Come Home
TTITLE7=Lover Man (Ok, Where Can You Be)
TTITLE8=The Man That Got Away
TTITLE9=For All We Know
TTITLE10=Say It Isn't So
TTITLE11=On The Street Of Regret
EXTD=
EXTT0=
EXTT1=
EXTT2=
EXTT3=
EXTT4=
EXTT5=
EXTT6=
EXTT7=
EXTT8=
EXTT9=
EXTT10=
EXTT11=
PLAYORDER=
